# xmcd
#
# Track frame offsets:
#	183
#	13055
#	21165
#	30938
#	39938
#	51643
#	64225
#	74798
#	85403
#	97275
#	110140
#	122695
#	131185
#	141678
#	156653
#	167443
#	179088
#
# Disc length: 2549
#
# Revision: 1
# Processed by: cddbd v1.5.1PL0 Copyright (c) Steve Scherf et al.
# Submitted via: VisiTrax 2.9.3.171 - For more info visit www.synapsa.com
# Normalized: r0:DSETVAR1
#
DISCID=0e09f311
DTITLE=Various Artist - Country Star Collection  Disc 2
DYEAR=2003
DGENRE=Country
TTITLE0=Anderson, Lynn - Rose Garden
TTITLE1=Billie Jo Spears - Things To Remember
TTITLE2=Merle Travis - Sixteen Tons
TTITLE3=Burl Ives - Little Bitty Tear
TTITLE4=Barbara Fairchild - You Can't Put The City In A Country Girl
TTITLE5=Frankie Laine - Moonlight Gambler
TTITLE6=Patsy Cline - Gotta Lot Of Rhythm In My Soul
TTITLE7=Tex Ritter - Have I Stayed Away Too Long?
TTITLE8=Dolly Parton - Making Believe
TTITLE9=Billie Jo Spears - Dallas
TTITLE10=Oakridge Boys - In The Shelter Of His Arms
TTITLE11=Burl Ives - Funny Way Of Laughing
TTITLE12=Patsy Cline - Lovesick Blues
TTITLE13=Tex Ritter - Hillbilly Heaven
TTITLE14=Ferlin Huskey - Gone
TTITLE15=Barbara Fairchild - Cheatin' Is
TTITLE16=Frankie Laine - High Noon
EXTD=LABEL:  Hallmark
EXTT0=
EXTT1=
EXTT2=
EXTT3=
EXTT4=
EXTT5=
EXTT6=
EXTT7=
EXTT8=
EXTT9=
EXTT10=
EXTT11=
EXTT12=
EXTT13=
EXTT14=
EXTT15=
EXTT16=
PLAYORDER=
